<svg xmlns="http://www.w3.org/2000/svg" fill-rule="evenodd" stroke-linejoin="round" stroke-miterlimit="2" clip-rule="evenodd" viewBox="0 0 64 64"><rect width="64" height="64" fill="none"/><circle cx="32" cy="32" r="28" fill="#dae7ef"/><circle cx="32" cy="32" r="28" fill="#f9f6f9" transform="translate(4.571 4.571) scale(.85714)"/><path fill="#57b7eb" d="M767,103C767,102.448 766.491,102 765.864,102L743.136,102C742.509,102 742,102.448 742,103L742,105C742,105.552 742.509,106 743.136,106L765.864,106C766.491,106 767,105.552 767,105L767,103Z" transform="matrix(.88 0 0 1 -627.96 -80)"/><path fill="#4891d3" d="M767,103C767,102.448 764.199,102 760.75,102L748.25,102C744.801,102 742,102.448 742,103L742,105C742,105.552 744.801,106 748.25,106L760.75,106C764.199,106 767,105.552 767,105L767,103Z" transform="matrix(-.16 0 0 1 139.72 -80)"/><path fill="#57b7eb" d="M767,103C767,102.448 766.491,102 765.864,102L743.136,102C742.509,102 742,102.448 742,103L742,105C742,105.552 742.509,106 743.136,106L765.864,106C766.491,106 767,105.552 767,105L767,103Z" transform="matrix(.88 0 0 1 -627.96 -72)"/><path fill="#4891d3" d="M767,103C767,102.448 764.199,102 760.75,102L748.25,102C744.801,102 742,102.448 742,103L742,105C742,105.552 744.801,106 748.25,106L760.75,106C764.199,106 767,105.552 767,105L767,103Z" transform="matrix(-.16 0 0 1 139.72 -72)"/><path fill="#57b7eb" d="M767,103C767,102.448 766.491,102 765.864,102L743.136,102C742.509,102 742,102.448 742,103L742,105C742,105.552 742.509,106 743.136,106L765.864,106C766.491,106 767,105.552 767,105L767,103Z" transform="matrix(.88 0 0 1 -627.96 -64)"/><path fill="#4891d3" d="M767,103C767,102.448 764.199,102 760.75,102L748.25,102C744.801,102 742,102.448 742,103L742,105C742,105.552 744.801,106 748.25,106L760.75,106C764.199,106 767,105.552 767,105L767,103Z" transform="matrix(-.16 0 0 1 139.72 -64)"/></svg>