<svg xmlns="http://www.w3.org/2000/svg" width="512" height="512"><path fill="#526471" d="M175.7 189.26H44.86c0-5.41.92-10.6 2.62-15.43 6.36-18.09 23.6-31.06 43.87-31.07v.01h58.97c2.09 11.29 6.4 21.8 12.45 31.06a86.14 86.14 0 0 0 12.93 15.43z"/><path fill="#FFC035" d="M319.63 126.53c.04 5.55-.45 10.98-1.43 16.24a84.71 84.71 0 0 1-12.45 31.06 85.381 85.381 0 0 1-12.93 15.43H175.7a86.14 86.14 0 0 1-12.93-15.43 85.058 85.058 0 0 1-12.45-31.06c-.9-4.87-1.38-9.88-1.42-15-.34-47.14 37.6-85.64 84.74-85.98h.62c46.87-.02 85.03 37.81 85.37 84.74z"/><path fill="#526471" d="M393.56 189.26H292.82c4.89-4.6 9.24-9.79 12.93-15.43a84.71 84.71 0 0 0 12.45-31.06h20.31v-.01h8.55c20.27 0 37.51 12.97 43.88 31.07 1.7 4.83 2.62 10.02 2.62 15.43z"/><path fill="#ECEFF0" d="M338.52 307.09c12.84 0 23.25 10.41 23.25 23.25 0 12.85-10.41 23.26-23.25 23.26-12.85 0-23.26-10.41-23.26-23.26 0-12.84 10.41-23.25 23.26-23.25z"/><path fill="#758289" d="M338.52 283.83c-25.49 0-46.19 20.5-46.51 45.91-.01.2-.01.41-.01.61 0 25.68 20.83 46.5 46.52 46.5h126.79v-93.02H338.52zm23.25 46.51c0 12.85-10.41 23.26-23.25 23.26-12.85 0-23.26-10.41-23.26-23.26 0-.2 0-.4.02-.6.31-12.56 10.59-22.65 23.24-22.65 12.64 0 22.92 10.09 23.24 22.65.01.2.01.4.01.6z"/><path fill="none" d="M465.31 424.92V235.77M91.35 142.77h58.97M338.51 142.77H318.2M418.81 470.21H91.36M465.32 423.71c0 .4 0 .81-.01 1.21-.64 25.11-21.23 45.29-46.5 45.29M44.86 423.7c0 25.69 20.82 46.51 46.5 46.51M465.31 235.77c0-25.68-20.81-46.51-46.5-46.51H44.86M91.36 142.76h-.01c-25.68.01-46.49 20.82-46.49 46.5M347.06 142.76h-8.55M393.56 189.26c0-25.68-20.82-46.5-46.5-46.5M44.85 423.71V189.26M338.52 376.85c-25.69 0-46.52-20.82-46.52-46.5 0-25.69 20.83-46.52 46.52-46.52M338.52 283.83h126.79M465.31 376.85H338.52"/><path fill="none" d="M338.52 307.09c12.84 0 23.25 10.41 23.25 23.25 0 12.85-10.41 23.26-23.25 23.26-12.85 0-23.26-10.41-23.26-23.26 0-12.84 10.41-23.25 23.26-23.25zM175.7 189.26c-12.9-12.17-22.02-28.31-25.38-46.49-.9-4.87-1.38-9.88-1.42-15-.34-47.14 37.6-85.64 84.74-85.98 47.15-.35 85.65 37.6 85.99 84.74.04 5.55-.45 10.98-1.43 16.24-3.35 18.16-12.46 34.32-25.38 46.49"/><path fill="#303C44" d="M292 330.35c0 25.68 20.83 46.5 46.52 46.5h126.79v48.07c-.64 25.11-21.23 45.29-46.5 45.29H91.36c-25.68 0-46.5-20.82-46.5-46.51h-.01V189.26h373.96c25.69 0 46.5 20.83 46.5 46.51v48.06H338.52c-25.69 0-46.52 20.83-46.52 46.52z"/><path fill="#C98B0E" d="m238.6 172.87.11 16.36v.03h-8l-.11-16.01-17.03.12h-.03c-2.2 0-3.98-1.77-4-3.97a3.999 3.999 0 0 1 3.97-4.03l21.03-.15c9.39-.07 16.97-7.77 16.91-17.16-.06-9.35-7.7-16.91-17.04-16.91h-.3c-6.62 0-12.85-2.55-17.57-7.2-4.77-4.7-7.41-10.97-7.46-17.65-.05-6.69 2.51-13 7.2-17.76 3.75-3.79 8.49-6.24 13.65-7.1l-.14-19.96a3.999 3.999 0 0 1 3.97-4.03h.03c2.2 0 3.98 1.77 4 3.97l.14 19.64 17.03-.13h.03c2.2 0 3.98 1.77 4 3.97a3.999 3.999 0 0 1-3.97 4.03l-21.03.16c-9.39.06-16.97 7.76-16.91 17.15.03 4.55 1.83 8.82 5.07 12.01 3.24 3.19 7.49 4.95 12.08 4.9h.18c13.73 0 24.95 11.11 25.04 24.85.09 12.44-8.96 22.85-20.85 24.87z"/><path d="M393.56 189.26H44.86c0-5.41.92-10.6 2.62-15.43h343.46c1.7 4.83 2.62 10.02 2.62 15.43z" opacity=".2"/><linearGradient id="a" x1="378.655" x2="378.655" y1="329.74" y2="376.85" gradientUnits="userSpaceOnUse"><stop offset="0"/><stop offset="1" stop-color="#FFF" stop-opacity="0"/></linearGradient><path fill="url(#a)" d="M465.31 329.74v47.11H338.52c-25.69 0-46.52-20.82-46.52-46.5 0-.2 0-.41.01-.61h173.3z" opacity=".2"/><linearGradient id="b" x1="234.26" x2="319.632" y1="115.525" y2="115.525" gradientUnits="userSpaceOnUse"><stop offset="0"/><stop offset="1" stop-color="#FFF" stop-opacity="0"/></linearGradient><path fill="url(#b)" d="M319.63 126.53c.04 5.55-.45 10.98-1.43 16.24a84.71 84.71 0 0 1-12.45 31.06 85.381 85.381 0 0 1-12.93 15.43h-58.56V41.79c46.87-.02 85.03 37.81 85.37 84.74z" opacity=".2"/></svg>